<svg width="120" height="120" fill="none" xmlns="http://www.w3.org/2000/svg"><path fill-rule="evenodd" clip-rule="evenodd" d="M59.999 27.468c17.966 0 32.53 14.564 32.53 32.532 0 17.968-14.564 32.532-32.53 32.532S27.469 77.968 27.469 60c0-17.968 14.562-32.532 32.53-32.532Z" fill="#6C1B2A"/><path d="M59.994 100c-21.89 0-39.793-17.704-39.992-39.635C19.8 38.309 37.58 20.203 59.635 20c10.733-.088 20.767 3.974 28.388 11.458 7.625 7.487 11.876 17.493 11.973 28.176.097 10.686-3.972 20.767-11.457 28.393-7.486 7.621-17.494 11.874-28.177 11.97l-.368.002Zm.012-73.887h-.315c-18.685.171-33.747 15.51-33.577 34.194A33.667 33.667 0 0 0 36.256 84.18c6.458 6.342 15.035 9.754 24.05 9.707 9.05-.082 17.528-3.685 23.87-10.142 6.342-6.457 9.788-15.001 9.708-24.052a33.666 33.666 0 0 0-10.143-23.87 33.659 33.659 0 0 0-23.735-9.709Z" fill="#6C1B2A"/><path d="M70.992 57.562v9.167h2.962c1.744 0 3.023-.171 3.837-.51a4.38 4.38 0 0 0 1.96-1.606 4.111 4.111 0 0 0 .742-2.352c0-1.063-.35-1.994-1.04-2.784-.693-.786-1.645-1.33-2.858-1.623-.813-.193-2.23-.294-4.251-.294h-1.352v.002Zm0-10.034v7.642h1.367c1.662 0 2.886-.156 3.666-.46a3.975 3.975 0 0 0 1.856-1.462 3.823 3.823 0 0 0 .685-2.215c0-1.09-.382-1.949-1.145-2.575-.77-.62-1.988-.929-3.66-.929h-2.769v-.001Zm-2.325-2.324h4.7c1.895 0 3.35.22 4.365.668a5.321 5.321 0 0 1 2.407 2.072c.592.924.885 1.96.885 3.09 0 1.062-.259 2.026-.775 2.895-.514.87-1.273 1.571-2.269 2.115 1.24.42 2.192.913 2.856 1.483a5.835 5.835 0 0 1 1.555 2.06c.373.803.56 1.677.56 2.619 0 1.915-.698 3.538-2.097 4.861-1.401 1.322-3.278 1.988-5.637 1.988h-6.55V45.202v.002Zm-31.623 23.85 3.306-23.85h.493l9.704 19.564 9.646-19.564h.358l3.433 23.85h-2.308l-2.392-17.075-8.45 17.076h-.624L41.678 51.85l-2.286 17.206h-2.347l-.002-.001Zm40.495 11.313a.52.52 0 0 1 .382.159.53.53 0 0 1 .157.387.528.528 0 0 1-.157.383.52.52 0 0 1-.382.16.522.522 0 0 1-.382-.16.527.527 0 0 1-.158-.383.528.528 0 0 1 .158-.389.524.524 0 0 1 .382-.155v-.002Zm-3.31-3.266v4.239h-.612v-4.778h2.42v.539h-1.808Zm-8.125-2.221h4.094l-3.455 6.62-.541-.276 2.995-5.735h-3.094v-.612l.001.002Zm-3.203 3.184c.38 0 .701-.132.963-.398a1.317 1.317 0 0 0 .393-.961 1.308 1.308 0 0 0-.397-.962 1.312 1.312 0 0 0-.963-.396 1.308 1.308 0 0 0-.96.397 1.31 1.31 0 0 0-.396.963c0 .372.133.694.399.96.264.265.586.397.963.397h-.002Zm-.703 3.437-.531-.341 1.747-2.64a2.188 2.188 0 0 1-.66.11c-.513 0-.948-.185-1.306-.555a1.892 1.892 0 0 1-.538-1.367 1.907 1.907 0 0 1 .994-1.72 2.056 2.056 0 0 1 2.012-.012c.303.173.539.415.713.724.17.31.259.641.259.992 0 .266-.054.546-.162.836a5.084 5.084 0 0 1-.573 1.052l-1.957 2.92h.002Zm-4.282-3.437c.379 0 .699-.132.963-.398a1.318 1.318 0 0 0 .393-.961 1.311 1.311 0 0 0-.398-.962 1.312 1.312 0 0 0-.963-.396 1.305 1.305 0 0 0-.96.397 1.308 1.308 0 0 0-.398.963c0 .372.134.694.4.96.265.265.587.397.963.397Zm-.705 3.437-.532-.341 1.748-2.64a2.176 2.176 0 0 1-.66.11c-.513 0-.948-.185-1.305-.555a1.892 1.892 0 0 1-.538-1.367 1.905 1.905 0 0 1 .995-1.72 2.054 2.054 0 0 1 2.01-.012c.304.173.54.415.712.724.173.31.26.641.26.992 0 .266-.055.546-.16.836-.15.372-.342.725-.574 1.052l-1.956 2.92Zm-5.048-6.623h1.276v6.462h-.647v-5.831h-1.018l.389-.63Zm-4.652 2.677-.488.302c-.423-.559-1-.837-1.732-.837-.584 0-1.072.187-1.457.56-.385.374-.58.827-.58 1.362 0 .348.09.674.268.98.177.306.42.543.732.714.309.17.657.253 1.042.253.705 0 1.281-.28 1.727-.837l.488.322c-.231.344-.55.62-.923.8a2.966 2.966 0 0 1-1.32.282c-.758 0-1.386-.239-1.886-.717a2.331 2.331 0 0 1-.748-1.75 2.483 2.483 0 0 1 .35-1.285c.233-.396.553-.704.963-.926.422-.225.893-.34 1.37-.334.317 0 .623.048.918.144.296.097.544.223.75.376.207.156.381.351.526.59Z" fill="#fff"/></svg>