<svg width="120" height="120" fill="none" xmlns="http://www.w3.org/2000/svg"><path d="M90.969 74.52a3.977 3.977 0 0 0 1.399-2.211c.1-.412.108-.835.107-1.257-.003-.407.002-.814-.003-1.216-.868.008-1.735.003-2.602 0v1.537c.001.313-.088.632-.288.876a1.28 1.28 0 0 1-.888.484 1.293 1.293 0 0 1-1.064-.405 1.374 1.374 0 0 1-.364-.95v-5.515c0-.23 0-.47.087-.684a1.29 1.29 0 0 1 2.333-.205c.173.276.199.61.18.927a284.71 284.71 0 0 1 2.614 0c-.003-.51-.04-1.03-.209-1.517a3.928 3.928 0 0 0-2.287-2.42c-.796-.313-1.692-.335-2.51-.111a3.895 3.895 0 0 0-2.06 1.462 4.003 4.003 0 0 0-.752 2.364c.001 1.929-.004 3.858.004 5.79a3.962 3.962 0 0 0 1.729 3.21c.64.431 1.409.683 2.182.663.859.024 1.716-.288 2.392-.822Zm-14.792-9.938h3.646V61.96H73.49v13.136h2.692l-.002-5.258 2.434.002v-2.624H76.18l-.002-2.633Zm7.321-2.623h-2.694v13.136h2.694V61.96Zm12.854 10.51.004-2.632 2.434.002v-2.624h-2.434l-.004-2.633H100V61.96h-6.335v13.136h6.334v-2.627h-3.647ZM59.308 54.592v-.245h-1.939v.245h.825v1.106h-.825v.243h1.939v-.243h-.913v-1.106h.913Zm28.742 2.293h-3.647v-2.63h2.437v-2.628l-2.437.003v-2.632l3.646.004v-2.629h-6.334v13.138h6.334v-2.627Zm1.802 26.405h-.492l-1.666 1.95v-1.95h-.43v4.021h.43v-2.038l1.708 2.038h.521l-1.705-2.068 1.634-1.953Zm1.068 2.039c-.08.55-.145.923-.196 1.124-.052.193-.11.333-.177.412a.298.298 0 0 1-.235.118.59.59 0 0 1-.286-.07v.392c.099.046.212.07.337.07a.61.61 0 0 0 .511-.233c.129-.16.232-.444.31-.847.077-.408.168-1.05.272-1.93l.078-.66h1.2v3.606h.43V83.29h-1.987c-.094.807-.18 1.487-.258 2.038Zm4.708.221a2.822 2.822 0 0 0-.1.29h-.018a2.04 2.04 0 0 0-.1-.265l-1.09-2.285h-.476l1.439 2.999c-.112.253-.222.424-.335.517-.114.096-.262.14-.447.14-.162 0-.321-.04-.478-.119v.457c.14.058.305.08.493.08a1.1 1.1 0 0 0 .527-.11c.142-.07.27-.184.384-.34.114-.156.242-.406.384-.746l1.18-2.878h-.455l-.908 2.26Zm3.77-.42c-.201-.08-.468-.12-.791-.12h-.575v-1.305h1.75v-.415h-2.178v4.021h1.08c.441 0 .77-.092.987-.286.219-.191.328-.486.328-.882 0-.275-.049-.493-.147-.651a.9.9 0 0 0-.454-.362Zm-.063 1.602c-.145.118-.38.173-.699.173h-.604V85.42h.523c.368 0 .63.055.776.166.15.112.223.294.223.557 0 .271-.072.47-.219.589ZM36.223 33.416c3.426.334 2.76 5.421 2.56 6.889-.085.704-.262 1.85-.363 2.546.466.342.746.613 1.198.856.168-1.072.264-2.117.394-3.193.255-1.876.067-4.406-.942-5.942-.638-.968-1.375-1.508-2.45-1.537-.205-.003-.495.373-.397.381Z" fill="#E22B29"/><path d="M35.974 43.48c.218.164 3.59 3.213 9.26 5.852l.439-1.27c-2.647-1.307-4.763-2.609-6.115-3.605-.947-.696-2.678-2.098-3.14-2.543-.944-.916-1.556-1.788-1.867-2.683-.994-2.851-.064-4.724.806-5.741.168-.202.37-.355.517-.489-.21-.024-2.51.367-2.94 3.892-.268 2.185.404 4.636 3.04 6.586Zm-4.608 21.542c-.952-.341-3.557-1.227-5.43-1.176-8.104.22-7.366 8.272-1.074 7.984 1.88-.085 3.886-1.044 5.107-2.663a93.24 93.24 0 0 0 1.513-2.052l-1.233-.404c-.415.556-.78 1.046-1.116 1.49-1 1.322-2.72 2.35-4.27 2.212-2.42-.21-2.526-1.883-2.49-2.584.114-2.157 2.032-2.624 3.718-2.648 1.18-.015 2.987.535 3.99.866l2.212.794c3.947 1.493 9.413 3.91 14.154 6.701l.038-1.544c-4.725-2.728-10.073-5.085-13.943-6.544l-1.176-.432Zm5.437-8.35-1.283-.583a46.79 46.79 0 0 1-3.852 8.42l1.18.472c.931-1.454 2.572-4.385 3.955-8.31Zm1.15-10.882c-.282 1.65-.798 4.649-1.725 7.909l1.304.639c.978-3.306 1.44-6.276 1.643-7.69l-1.222-.859Zm9.145 4.36c1.019.417 2.1.815 3.239 1.171l.384-1.164c-.987-.264-2.096-.72-3.272-1.256l-.35 1.249Zm8.9.503c-.892.007-1.993.022-3.312-.133l-.388 1.23c1.088.143 2.493.208 4.07.078l-.068-1.18c-.099.004-.2.004-.301.005Z" fill="#E22B29"/><path d="M51.651 75.379a45.14 45.14 0 0 0-3.125-2.153v1.597c.927.6 1.773 1.189 2.525 1.764 2.878 2.192 4.33 4.666 3.883 6.616-.278 1.216-1.31 2.069-2.508 2.069h-.001c-1.285 0-2.407-.944-3.082-2.595-.797-1.945-1.245-4.754-1.305-8.167l.004.002-.001-1.588c-.003 0-.003 0-.005-.002.093-6.08 1.272-13.263 3.214-19.681.089-.291 1.137-3.743 2.17-6.055 1.456-3.26 2.942-5.916 4.55-7.7 2.2-2.44 4.47-3.51 6.356-3.51 1.156 0 2.197.217 3.129 1.2 1.243 1.309 1.77 2.954 1.57 4.892-.104.978-.41 1.953-.83 2.861l.624.017c1.62-2.666 2.499-6.153-.239-9.134-1.125-1.232-2.834-1.532-4.272-1.532-2.782 0-5.399 2.258-7.103 4.151-1.761 1.956-3.338 5.12-4.851 8.797-.637 1.549-1.702 4.465-2.324 6.612-1.683 5.81-2.869 12.117-3.101 17.697l-.002.059-.04 2.488v.028c.034 3.818.527 6.994 1.436 9.208.863 2.11 2.603 3.673 4.307 3.673h.001c1.707 0 3.191-1.277 3.61-3.102.286-1.243.224-4.843-4.59-8.512ZM35.85 54.482l-.543.604 8.293 4.092 4.212-14.18-.778 1.004-3.958 11.68-7.225-3.2Z" fill="#E22B29"/><path d="M64.798 64.16a3.928 3.928 0 0 0-1.97-2.098c-.722-.351-1.55-.425-2.336-.305a3.882 3.882 0 0 0-2.444 1.517 3.943 3.943 0 0 0-.778 2.357c.002 1.928.002 3.86.002 5.786a3.943 3.943 0 0 0 1.03 2.651 3.872 3.872 0 0 0 2.251 1.23c.778.115 1.594.025 2.304-.329a3.952 3.952 0 0 0 2.094-2.567 4.36 4.36 0 0 0 .13-1.121l-.001-5.602a4.033 4.033 0 0 0-.282-1.52Zm-2.409 1.838v5.378c0 .308-.078.62-.263.859a1.165 1.165 0 0 1-1.008.486c-.426-.016-.829-.297-1.02-.704a1.628 1.628 0 0 1-.139-.689c0-1.793.002-3.585 0-5.374-.002-.279-.004-.563.1-.823.14-.376.454-.668.817-.766.292-.076.613-.043.876.12.322.186.555.535.616.926.028.194.021.391.021.587Zm6.605-1.416h3.646V61.96h-6.333v13.136h2.689l-.002-5.258 2.436.002v-2.624h-2.436v-2.633ZM57.37 57.917v1.575h.2v-.665h1.738v-.243H57.57v-.667h-.202Zm0-6.86v1.167h1.938v-1.167h-.202v.924h-.713v-.87h-.199v.87h-.623v-.924h-.202Z" fill="#E22B29"/><path d="m57.534 48.999 2.425.003.002 10.509h2.693l-.005-10.513h2.432v-2.625h-7.547V49Zm11.459-2.626H66.3v13.138h2.692V46.373Zm1.298 13.138h2.692v-7.87l1.822 3.929h1.217l1.82-3.933v7.874h2.691V46.374l-2.7.006-2.423 5.247-2.433-5.256-2.426.003h-.26V59.51Zm.769 18.229h-.49l-1.667 1.945V77.74h-.43v4.022h.43v-2.04l1.708 2.04h.522l-1.706-2.067 1.634-1.954Zm2.202-.069c-.547 0-.967.182-1.265.544-.296.36-.445.867-.445 1.521 0 .662.15 1.17.444 1.534.296.364.717.544 1.26.544.533 0 .948-.187 1.249-.555.3-.367.447-.872.447-1.518 0-.647-.148-1.15-.446-1.517-.3-.366-.713-.553-1.244-.553Zm.922 3.313c-.208.28-.518.42-.927.42-.408 0-.717-.142-.93-.424-.212-.279-.32-.693-.32-1.239 0-.537.108-.946.32-1.226.213-.282.525-.424.935-.424.407 0 .716.139.924.42.207.284.31.69.31 1.23 0 .547-.103.962-.312 1.243Zm3.416-1.331v-.026c.234-.048.412-.148.534-.302a.934.934 0 0 0 .184-.59c0-.343-.111-.6-.33-.755-.22-.16-.572-.24-1.064-.24H75.88v4.022h1.289c.4 0 .714-.103.938-.304.222-.203.335-.481.335-.844 0-.534-.282-.855-.842-.96Zm-1.29-1.51h.633c.323 0 .558.05.706.15.149.102.224.263.224.49 0 .244-.066.416-.2.52-.133.105-.352.155-.655.155h-.707v-1.315Zm1.445 3.028c-.15.127-.375.189-.673.189h-.771v-1.502h.735c.313 0 .55.057.704.176.153.116.233.3.233.548 0 .27-.078.466-.228.59Zm3.1-3.5c-.545 0-.967.182-1.263.544-.297.36-.445.867-.445 1.521 0 .662.147 1.17.442 1.534.296.364.716.544 1.261.544.533 0 .95-.187 1.249-.555.297-.367.448-.872.448-1.518 0-.647-.15-1.15-.447-1.517-.3-.366-.714-.553-1.245-.553Zm.924 3.313c-.21.28-.52.42-.929.42-.406 0-.717-.142-.93-.424-.213-.279-.318-.693-.318-1.239 0-.537.105-.946.319-1.226.212-.282.525-.424.934-.424.407 0 .716.139.925.42.208.284.31.69.31 1.23 0 .547-.102.962-.311 1.243Zm2.653-3.244h-.957v4.022h.43v-1.584h.433c.477 0 .842-.111 1.097-.33.254-.216.383-.53.383-.937 0-.78-.462-1.17-1.386-1.17Zm.685 1.837c-.169.132-.445.2-.826.2h-.387v-1.634h.481c.338 0 .587.066.747.197.16.129.242.327.242.593 0 .293-.085.51-.257.644Zm4.236 2.185-1.706-2.067 1.636-1.954h-.493l-1.666 1.944V77.74h-.43v4.022h.43v-2.04l1.71 2.04h.52Zm3.165-3.377h.022c-.028.405-.043.795-.043 1.162v2.215h.404V77.74h-.47l-2.073 3.353h-.021c.025-.335.037-.704.037-1.12V77.74h-.401v4.022h.468l2.077-3.377Zm1.498-.645v4.022h.43v-1.895h1.947v1.895h.43V77.74h-.43v1.71h-1.947v-1.71h-.43Zm3.924 4.022h.428V78.16H100v-.42h-2.06v4.02Zm-55.969-20.27a.299.299 0 0 1-.19.058.48.48 0 0 1-.203-.05v.193c.061.022.13.032.21.032a.515.515 0 0 0 .224-.043.47.47 0 0 0 .161-.144c.05-.068.105-.173.163-.321l.502-1.218h-.193l-.385.955a1.07 1.07 0 0 0-.04.124h-.01a1.001 1.001 0 0 0-.041-.11l-.465-.969h-.2l.61 1.273a.644.644 0 0 1-.143.22Zm1.791.234v-.26h.045a.71.71 0 0 0 .328-.074.546.546 0 0 0 .217-.228.73.73 0 0 0 .08-.347.704.704 0 0 0-.071-.328.517.517 0 0 0-.205-.225.612.612 0 0 0-.318-.077h-.076v-.211h-.184v.211h-.072a.593.593 0 0 0-.318.08.516.516 0 0 0-.209.226.71.71 0 0 0-.071.328c0 .124.025.24.078.34a.52.52 0 0 0 .216.227c.093.052.2.077.327.077h.049v.261h.184Zm0-1.371h.062a.41.41 0 0 1 .311.122c.072.081.11.195.11.339a.508.508 0 0 1-.121.355c-.08.088-.19.127-.335.127h-.027v-.943Zm-.209.943c-.146 0-.257-.04-.337-.127a.5.5 0 0 1-.12-.355c0-.141.039-.254.113-.339a.402.402 0 0 1 .307-.122h.062v.943h-.025Zm.949.41h.185l.194-.541h.628l.195.541h.19l-.618-1.714h-.154l-.62 1.714Zm.694-1.496c.026.098.05.179.073.246l.183.529h-.507l.184-.529c.03-.089.052-.172.067-.246Z" fill="#E22B29"/></svg>