<svg width="120" height="120" viewBox="0 0 120 120" fill="none" xmlns="http://www.w3.org/2000/svg">
<path d="M90.9689 74.5204C91.6647 73.9699 92.1687 73.1789 92.368 72.3089C92.4679 71.8975 92.4762 71.4741 92.4746 71.0516C92.4722 70.6446 92.477 70.2384 92.4718 69.8356C91.6035 69.844 90.7372 69.8389 89.8701 69.8356C89.8701 70.3491 89.8713 70.8619 89.8701 71.3728C89.8713 71.6863 89.7817 72.005 89.5824 72.2488C89.3685 72.5236 89.0381 72.704 88.6935 72.7332C88.3024 72.7675 87.8971 72.6223 87.6303 72.3277C87.3884 72.0753 87.2652 71.7232 87.2664 71.378C87.2652 69.5366 87.2664 67.7004 87.2652 65.8626C87.2652 65.6325 87.2652 65.3928 87.3528 65.179C87.5221 64.7032 87.9851 64.3571 88.4864 64.3314C88.9639 64.291 89.4478 64.5555 89.6862 64.9737C89.8586 65.2502 89.8848 65.5844 89.8662 65.9012C90.7372 65.8969 91.6087 65.8969 92.4797 65.9012C92.477 65.3903 92.4403 64.8707 92.2714 64.3837C91.915 63.2878 91.0522 62.3749 89.9838 61.9636C89.1881 61.6509 88.2918 61.6285 87.4732 61.8528C86.6518 62.0941 85.9131 62.6145 85.4138 63.3153C84.9169 63.9938 84.6599 64.8363 84.6619 65.6788C84.6635 67.6078 84.6583 69.5366 84.6658 71.4682C84.6738 72.7366 85.3451 73.9768 86.395 74.6793C87.0355 75.1104 87.8035 75.362 88.5772 75.3423C89.436 75.3663 90.2928 75.0537 90.9689 74.5204Z" fill="#E22B29"/>
<path d="M76.1773 64.5823H79.8226L79.8234 61.9585H73.7512H73.4888V75.0951H76.1812L76.1789 69.8374L78.6133 69.8392V67.2145H76.1789L76.1773 64.5823Z" fill="#E22B29"/>
<path d="M83.4979 61.9585H80.9356H80.8042V75.0951H83.4979V61.9585Z" fill="#E22B29"/>
<path d="M96.3524 72.4688L96.3564 69.8374L98.79 69.8392V67.2145H96.3564L96.3524 64.5823H99.9989V61.9585H93.9263H93.665V75.0951H99.9989V72.4679L96.3524 72.4688Z" fill="#E22B29"/>
<path d="M59.3078 54.5917V54.3469H57.3691V54.5917H58.194V55.6978H57.3691V55.9409H59.3078V55.6978H58.3949V54.5917H59.3078Z" fill="#E22B29"/>
<path d="M88.0491 56.8845H84.403V54.2556H86.8398V51.6267L84.403 51.6301V48.9978L88.0491 49.0022L88.0495 46.3733H81.9766H81.7148V59.5107H88.0495L88.0491 56.8845Z" fill="#E22B29"/>
<path d="M89.8516 83.2897H89.3598L87.6939 85.2392V83.2897H87.2637V87.3115H87.6939V85.2734L89.4021 87.3115H89.9234L88.218 85.2427L89.8516 83.2897Z" fill="#E22B29"/>
<path d="M90.9191 85.3285C90.8402 85.8781 90.7747 86.2518 90.7238 86.4527C90.6717 86.6459 90.6133 86.786 90.547 86.8649C90.4783 86.9456 90.4009 86.9826 90.3122 86.9826C90.2127 86.9826 90.1171 86.9628 90.0264 86.9139V87.3046C90.1247 87.351 90.238 87.3751 90.3627 87.3751C90.575 87.3794 90.7439 87.3012 90.8742 87.1422C91.0025 86.9826 91.1059 86.6983 91.1836 86.2947C91.2614 85.8867 91.3517 85.2443 91.4555 84.3658L91.5341 83.7053H92.7343V87.3115H93.1645V83.2897H91.1769C91.0826 84.0969 90.9973 84.7771 90.9191 85.3285Z" fill="#E22B29"/>
<path d="M95.6276 85.5501C95.6098 85.5878 95.5755 85.6848 95.5282 85.8395H95.5104C95.4851 85.7553 95.4523 85.6669 95.4101 85.575L94.3193 83.2897H93.8438L95.2827 86.2886C95.1714 86.542 95.0605 86.713 94.9484 86.8056C94.8343 86.9019 94.6859 86.9456 94.5015 86.9456C94.3394 86.9456 94.1799 86.9053 94.0229 86.8271V87.2841C94.1637 87.3416 94.3283 87.3647 94.5158 87.3647C94.7241 87.3647 94.8998 87.3321 95.0431 87.2548C95.1848 87.1844 95.3124 87.0701 95.4268 86.9147C95.5409 86.7585 95.6686 86.5084 95.8111 86.1675L96.9904 83.2897H96.5357L95.6276 85.5501Z" fill="#E22B29"/>
<path d="M99.3985 85.1301C99.1965 85.0494 98.9301 85.0091 98.6068 85.0091H98.0318V83.7053H99.7814V83.2897H97.6035V87.3115H98.6842C99.1251 87.3115 99.4534 87.2188 99.6705 87.0255C99.89 86.834 99.9985 86.5386 99.9985 86.1426C99.9985 85.8678 99.95 85.6497 99.8517 85.4917C99.7546 85.3311 99.6022 85.2125 99.3985 85.1301ZM99.335 86.7318C99.1897 86.8495 98.9549 86.9053 98.636 86.9053H98.0318V85.4204H98.5555C98.9233 85.4204 99.1842 85.4745 99.3307 85.5861C99.4807 85.6978 99.554 85.8798 99.554 86.1426C99.554 86.414 99.4819 86.6124 99.335 86.7318Z" fill="#E22B29"/>
<path d="M36.2233 33.4163C39.6491 33.7495 38.9833 38.8371 38.7828 40.3049C38.698 41.009 38.5207 42.1548 38.4197 42.8513C38.8858 43.193 39.1665 43.4644 39.6179 43.7066C39.7864 42.6348 39.8816 41.5905 40.0122 40.5136C40.2668 38.6379 40.0786 36.1078 39.0697 34.5722C38.4316 33.6043 37.695 33.0641 36.6196 33.0349C36.4147 33.0315 36.1254 33.4076 36.2233 33.4163Z" fill="#E22B29"/>
<path d="M35.9737 43.4794C36.1924 43.6435 39.5634 46.6932 45.2338 49.3324L45.6727 48.0613C43.0263 46.7549 40.91 45.4531 39.5578 44.4569C38.6114 43.7611 36.8795 42.3587 36.4185 41.9139C35.4745 40.9983 34.862 40.1258 34.5513 39.2309C33.5567 36.3796 34.4874 34.5065 35.3572 33.4897C35.5254 33.2879 35.7267 33.1349 35.8743 33.001C35.6632 32.977 33.3634 33.3677 32.9335 36.8932C32.6656 39.078 33.3381 41.5291 35.9737 43.4794Z" fill="#E22B29"/>
<path d="M31.366 65.0216C30.4136 64.6806 27.8087 63.7953 25.9364 63.8458C17.8323 64.0657 18.57 72.1181 24.8624 71.8303C26.7422 71.7445 28.7477 70.786 29.9692 69.1672C30.4179 68.5737 30.9235 67.8961 31.482 67.1146L30.249 66.7109C29.8335 67.2666 29.4683 67.757 29.1333 68.2011C28.1339 69.5227 26.4139 70.5507 24.8624 70.4133C22.4438 70.2037 22.3365 68.5299 22.3732 67.8291C22.4872 65.6718 24.4046 65.2045 26.0915 65.1806C27.2719 65.1659 29.078 65.7165 30.0809 66.047L32.2931 66.8415C36.2395 68.3341 41.7055 70.7509 46.4472 73.542L46.485 71.9978C41.7599 69.2702 36.412 66.9128 32.5421 65.4545L31.366 65.0216Z" fill="#E22B29"/>
<path d="M36.8027 56.6719L35.52 56.0887C34.2744 59.7818 32.5876 62.9593 31.668 64.5095L32.8484 64.981C33.7791 63.5271 35.4202 60.5958 36.8027 56.6719Z" fill="#E22B29"/>
<path d="M37.9525 45.7891C37.6714 47.4397 37.1552 50.4387 36.2285 53.6989L37.5322 54.3378C38.5101 51.0321 38.9711 48.0615 39.1748 46.6486L37.9525 45.7891Z" fill="#E22B29"/>
<path d="M47.0981 50.1496C48.1169 50.5671 49.1987 50.9647 50.337 51.3211L50.721 50.1573C49.7339 49.8929 48.6252 49.4368 47.4486 48.9009L47.0981 50.1496Z" fill="#E22B29"/>
<path d="M55.9985 50.6528C55.1058 50.6596 54.0054 50.675 52.6859 50.5205L52.2983 51.7504C53.3858 51.8929 54.7908 51.9581 56.3671 51.8276L56.3 50.6475C56.201 50.6519 56.1 50.6519 55.9985 50.6528Z" fill="#E22B29"/>
<path d="M51.6515 75.3787C50.7346 74.6805 49.6863 73.9626 48.526 73.2257V74.8231C49.4534 75.4234 50.2992 76.0116 51.0515 76.587C53.9295 78.7788 55.3807 81.2531 54.9344 83.2034C54.6558 84.4195 53.6236 85.2715 52.4262 85.2715C52.425 85.2715 52.425 85.2715 52.425 85.2715C51.14 85.2715 50.0175 84.3285 49.3429 82.677C48.5461 80.7317 48.0985 77.9235 48.0378 74.5104L48.0416 74.5123L48.0409 72.9242C48.0378 72.9242 48.0378 72.9242 48.0361 72.9225C48.1285 66.8429 49.3078 59.6588 51.2496 53.2409C51.3388 52.9497 52.3867 49.4981 53.4196 47.1862C54.876 43.9261 56.3619 41.2698 57.9702 39.4859C60.1706 37.0452 62.4393 35.9752 64.3262 35.9752C65.4822 35.9752 66.5234 36.1933 67.4548 37.1758C68.6985 38.4846 69.225 40.1301 69.0241 42.0676C68.9215 43.0458 68.6152 44.0206 68.1941 44.9292L68.8185 44.9463C70.4383 42.2797 71.318 38.7929 68.5805 35.8119C67.4548 34.5795 65.7455 34.2798 64.3085 34.2798C61.5264 34.2798 58.9093 36.5385 57.2046 38.4313C55.4435 40.3869 53.8668 43.5517 52.354 47.2283C51.7169 48.7767 50.6517 51.6933 50.0297 53.8403C48.3472 59.6503 47.1615 65.9567 46.9287 71.5372L46.9275 71.5956L46.8872 74.0837V74.1119C46.9208 77.9303 47.4145 81.1063 48.3227 83.3202C49.1863 85.4295 50.9256 86.9934 52.6302 86.9934C52.6302 86.9934 52.6302 86.9934 52.631 86.9934C54.3376 86.9934 55.822 85.7164 56.2412 83.8905C56.5269 82.6478 56.4653 79.0477 51.6515 75.3787Z" fill="#E22B29"/>
<path d="M35.8506 54.4818L35.3071 55.0856L43.6002 59.178L47.8115 44.9978L47.0339 46.0018L43.0757 57.6819L35.8506 54.4818Z" fill="#E22B29"/>
<path d="M64.7979 64.1594C64.4344 63.243 63.7173 62.4754 62.8276 62.0622C62.1065 61.7109 61.2781 61.6371 60.492 61.7574C59.5261 61.923 58.6318 62.4787 58.048 63.274C57.5437 63.9473 57.2678 64.789 57.2705 65.6306C57.2725 67.5595 57.2725 69.4901 57.2725 71.4173C57.2678 72.3921 57.6478 73.3531 58.3014 74.0685C58.888 74.717 59.6923 75.1635 60.5531 75.2975C61.3307 75.4126 62.1472 75.3232 62.8572 74.9694C63.883 74.4808 64.672 73.5111 64.9515 72.4015C65.0489 72.0348 65.0809 71.656 65.0809 71.2808C65.0797 69.4145 65.0813 67.5458 65.0797 65.6795C65.0785 65.16 64.9949 64.6413 64.7979 64.1594ZM62.3895 65.9982C62.3895 67.7914 62.3895 69.5846 62.3895 71.3761C62.3895 71.6845 62.3106 71.9961 62.1259 72.2349C61.8915 72.563 61.4992 72.746 61.1175 72.7211C60.6924 72.7047 60.2891 72.4239 60.0973 72.0169C59.997 71.8012 59.9591 71.5616 59.9595 71.328C59.9595 69.5348 59.9607 67.7433 59.9595 65.9536C59.9571 65.6752 59.9552 65.391 60.0585 65.1308C60.1994 64.7555 60.5125 64.4626 60.8756 64.3647C61.168 64.2891 61.4889 64.3218 61.7521 64.4841C62.0738 64.6713 62.3071 65.02 62.3679 65.4108C62.3962 65.6049 62.3895 65.8024 62.3895 65.9982Z" fill="#E22B29"/>
<path d="M68.9936 64.5823H72.6401V61.9585H66.5675H66.3062V75.0951H68.9956L68.9936 69.8374L71.4295 69.8392V67.2145H68.9936V64.5823Z" fill="#E22B29"/>
<path d="M57.3691 57.9175V59.4925H57.5708V58.827H59.3078V58.5839H57.5708V57.9175H57.3691Z" fill="#E22B29"/>
<path d="M57.3691 51.0568V52.224H59.3078V51.0568H59.1065V51.9808H58.3929V51.1101H58.194V51.9808H57.5708V51.0568H57.3691Z" fill="#E22B29"/>
<path d="M57.5342 48.9987L59.9595 49.0022L59.9606 59.5107H62.654L62.6492 48.9978L65.0813 48.9987V46.3733H57.5342V48.9987Z" fill="#E22B29"/>
<path d="M68.9926 46.3733H66.433H66.3013V59.5107H68.9926V46.3733Z" fill="#E22B29"/>
<path d="M70.291 59.5111H72.9828L72.9836 51.6408L74.8046 55.5699H76.0218L77.8417 51.6366V59.5111H80.533V46.3737L77.8334 46.3797L75.41 51.627L72.9769 46.3711L70.5511 46.3737H70.291V59.5111Z" fill="#E22B29"/>
<path d="M71.0609 77.7405H70.5691L68.9028 79.685V77.7405H68.4722V81.7616H68.9028V79.7227L70.611 81.7616H71.1327L69.4269 79.6952L71.0609 77.7405Z" fill="#E22B29"/>
<path d="M73.2616 77.6715C72.7153 77.6715 72.2946 77.8527 71.9971 78.2151C71.7011 78.5749 71.5522 79.0817 71.5522 79.7361C71.5522 80.3983 71.7011 80.9058 71.9958 81.2699C72.2923 81.634 72.7126 81.8144 73.2569 81.8144C73.7889 81.8144 74.2045 81.6272 74.5048 81.2588C74.8044 80.8921 74.9524 80.3871 74.9524 79.7412C74.9524 79.0945 74.8044 78.5904 74.5056 78.2236C74.2068 77.8578 73.7925 77.6715 73.2616 77.6715ZM74.1839 80.984C73.9756 81.2631 73.6661 81.4039 73.2569 81.4039C72.8492 81.4039 72.5401 81.2622 72.3274 80.9797C72.1151 80.7014 72.0073 80.2866 72.0073 79.7412C72.0073 79.2036 72.1151 78.7948 72.3274 78.5149C72.5401 78.2331 72.8523 78.0905 73.2616 78.0905C73.6693 78.0905 73.9776 78.2296 74.1856 78.5113C74.3927 78.7948 74.4965 79.2019 74.4965 79.7412C74.4965 80.2883 74.3927 80.7031 74.1839 80.984Z" fill="#E22B29"/>
<path d="M77.5999 79.6531V79.6266C77.8336 79.5785 78.0124 79.4788 78.1342 79.3251C78.2558 79.168 78.3178 78.9721 78.3178 78.7351C78.3178 78.3916 78.2069 78.1357 77.9879 77.9802C77.7688 77.8195 77.4156 77.7405 76.9238 77.7405H75.8799V81.7616H77.1689C77.5691 81.7616 77.8829 81.6585 78.1074 81.4584C78.3292 81.2548 78.4417 80.9765 78.4417 80.6142C78.4417 80.08 78.1596 79.7588 77.5999 79.6531ZM76.3105 78.1433H76.9427C77.2656 78.1433 77.5005 78.1932 77.6488 78.2936C77.798 78.395 77.873 78.5565 77.873 78.7823C77.873 79.027 77.8067 79.1989 77.6725 79.3036C77.5399 79.4084 77.3213 79.4582 77.0181 79.4582H76.3105V78.1433ZM77.7546 81.1715C77.605 81.2979 77.3804 81.3597 77.0821 81.3597H76.3105V79.8583H77.0458C77.3595 79.8583 77.5959 79.9151 77.7498 80.0336C77.9034 80.1504 77.9827 80.3342 77.9827 80.5824C77.9827 80.8512 77.9053 81.0479 77.7546 81.1715Z" fill="#E22B29"/>
<path d="M80.8547 77.6715C80.3096 77.6715 79.8877 77.8527 79.5917 78.2151C79.2945 78.5749 79.1465 79.0817 79.1465 79.7361C79.1465 80.3983 79.2945 80.9058 79.5889 81.2699C79.885 81.634 80.3049 81.8144 80.8503 81.8144C81.3828 81.8144 81.7991 81.6272 82.0987 81.2588C82.3963 80.8921 82.5466 80.3871 82.5466 79.7412C82.5466 79.0945 82.3978 78.5904 82.1003 78.2236C81.7999 77.8578 81.3859 77.6715 80.8547 77.6715ZM81.7786 80.984C81.569 81.2631 81.2596 81.4039 80.8503 81.4039C80.4441 81.4039 80.1332 81.2622 79.9208 80.9797C79.7069 80.7014 79.6023 80.2866 79.6023 79.7412C79.6023 79.2036 79.7069 78.7948 79.9208 78.5149C80.1332 78.2331 80.4458 78.0905 80.8547 78.0905C81.2624 78.0905 81.5714 78.2296 81.7802 78.5113C81.9882 78.7948 82.0908 79.2019 82.0908 79.7412C82.0908 80.2883 81.9882 80.7031 81.7786 80.984Z" fill="#E22B29"/>
<path d="M84.4321 77.7405H83.4746V81.7616H83.9044V80.1778H84.3385C84.8153 80.1778 85.1796 80.067 85.4353 79.8481C85.6895 79.6317 85.8182 79.3174 85.8182 78.9111C85.8182 78.1305 85.3564 77.7405 84.4321 77.7405ZM85.1173 79.5767C84.9483 79.709 84.6724 79.7776 84.2912 79.7776H83.9044V78.1433H84.3855C84.7226 78.1433 84.9724 78.2094 85.1322 78.34C85.2929 78.4689 85.3738 78.6673 85.3738 78.9326C85.3738 79.2264 85.2889 79.4428 85.1173 79.5767Z" fill="#E22B29"/>
<path d="M89.3534 81.7616L87.6473 79.6952L89.2828 77.7405H88.7898L87.1243 79.685V77.7405H86.6948V81.7616H87.1243V79.7227L88.834 81.7616H89.3534Z" fill="#E22B29"/>
<path d="M92.518 78.3847H92.5405C92.5124 78.7901 92.4971 79.18 92.4971 79.5468V81.7616H92.9008V77.7405H92.4308L90.3575 81.0933H90.3366C90.3615 80.7585 90.3741 80.3893 90.3741 79.9735V77.7405H89.9727V81.7616H90.4407L92.518 78.3847Z" fill="#E22B29"/>
<path d="M94.0161 77.7405V81.7616H94.4463V79.867H96.3933V81.7616H96.8223V77.7405H96.3933V79.4496H94.4463V77.7405H94.0161Z" fill="#E22B29"/>
<path d="M97.9399 81.7616H98.3685V78.1606H99.9993V77.7405H97.9399V81.7616Z" fill="#E22B29"/>
<path d="M41.9711 61.4917C41.9229 61.5295 41.8598 61.5501 41.7816 61.5501C41.7126 61.5501 41.6443 61.5313 41.5783 61.5003V61.6926C41.6395 61.7149 41.7082 61.7254 41.7883 61.7254C41.8768 61.7254 41.951 61.7116 42.0122 61.6823C42.0721 61.6497 42.127 61.6034 42.1732 61.5381C42.2233 61.4702 42.2778 61.3646 42.3365 61.2168L42.8379 59.9991H42.6448L42.2596 60.9541C42.2513 60.9747 42.2383 61.0142 42.2193 61.0778H42.2103C42.2 61.0425 42.185 61.0057 42.1688 60.9678L41.7043 59.9991H41.5034L42.1132 61.2719C42.0658 61.3767 42.0185 61.4513 41.9711 61.4917Z" fill="#E22B29"/>
<path d="M43.7622 61.7262V61.4651H43.8068C43.9322 61.4651 44.0408 61.4402 44.1351 61.392C44.2267 61.3397 44.3001 61.2641 44.3518 61.1645C44.4059 61.0631 44.4319 60.9462 44.4319 60.8166C44.4319 60.6938 44.4099 60.5822 44.3609 60.4885C44.3139 60.3932 44.2452 60.3159 44.1557 60.2643C44.0661 60.2112 43.9595 60.1871 43.8383 60.1871H43.7622V59.9758H43.5779V60.1871H43.5056C43.3832 60.1871 43.2771 60.2112 43.1879 60.2661C43.0967 60.3176 43.0281 60.395 42.9795 60.4928C42.931 60.5872 42.9077 60.6972 42.9077 60.8209C42.9077 60.9446 42.9329 61.0614 42.9858 61.161C43.0379 61.2606 43.1101 61.3397 43.2021 61.3878C43.2945 61.4402 43.4022 61.4651 43.5293 61.4651H43.5779V61.7262H43.7622ZM43.7622 60.3546H43.8241C43.9559 60.3546 44.0605 60.3975 44.1351 60.4774C44.207 60.5581 44.2452 60.6723 44.2452 60.8157C44.2452 60.9635 44.203 61.0872 44.1237 61.1713C44.0444 61.2589 43.9343 61.2976 43.7894 61.2976H43.7622V60.3546ZM43.553 61.2976C43.4073 61.2976 43.296 61.2589 43.2163 61.1713C43.1378 61.0888 43.0967 60.9686 43.0967 60.8157C43.0967 60.6749 43.135 60.5616 43.2092 60.4774C43.2842 60.3975 43.3861 60.3546 43.5163 60.3546H43.5779V61.2976H43.553Z" fill="#E22B29"/>
<path d="M44.5024 61.7081H44.6875L44.881 61.167H45.5089L45.7039 61.7081H45.8941L45.2761 59.9939H45.1221L44.5024 61.7081ZM45.1963 60.2119C45.222 60.3099 45.246 60.3907 45.2686 60.4585L45.452 60.9867H44.9453L45.1292 60.4585C45.1584 60.3692 45.1813 60.2859 45.1963 60.2119Z" fill="#E22B29"/>
</svg>
