<svg width="120" height="120" fill="none" xmlns="http://www.w3.org/2000/svg"><path d="M69.511 38h1.333c2.29.187 4.562.968 6.375 2.4-.497.903-1.023 1.791-1.545 2.68-1.248-.815-2.654-1.422-4.14-1.614-1.145-.147-2.345-.097-3.424.343-.594.247-1.165.642-1.465 1.228-.306.59-.137 1.344.301 1.823.538.596 1.304.909 2.04 1.184 1.748.616 3.584.98 5.273 1.758.974.45 1.913 1.058 2.55 1.94.582.799.849 1.796.844 2.777a5.545 5.545 0 0 1-1.32 3.644c-.915 1.088-2.195 1.814-3.541 2.23-1.041.343-2.138.433-3.219.562h-.96c-.54-.084-1.087-.116-1.624-.219a11.809 11.809 0 0 1-2.587-.777c-1.017-.452-2.011-.985-2.855-1.72a89.774 89.774 0 0 1 1.696-2.68c1.206.962 2.616 1.72 4.145 1.991 1.227.194 2.508.161 3.698-.217.825-.267 1.627-.744 2.092-1.498.335-.54.493-1.238.264-1.847-.26-.597-.858-.942-1.425-1.202-1.22-.535-2.53-.81-3.795-1.214-1.413-.44-2.849-.952-4.008-1.902-.783-.635-1.376-1.507-1.633-2.486-.3-1.14-.27-2.403.261-3.473.624-1.312 1.807-2.285 3.112-2.878 1.115-.518 2.34-.73 3.557-.833ZM20 38.571c2.943-.008 5.887 0 8.83-.004 1.517.002 3.063.189 4.46.812.998.446 1.897 1.178 2.406 2.16.498.94.646 2.045.5 3.093-.192 1.234-1.098 2.265-2.201 2.798-.335.176-.713.256-1.037.453.296.157.63.208.946.315.624.206 1.23.476 1.78.836.71.454 1.312 1.101 1.622 1.892.414 1.063.485 2.274.093 3.354-.449 1.309-1.479 2.353-2.684 2.997-1.543.831-3.327 1.094-5.06 1.078H20V38.57Zm3.961 3.25a467.32 467.32 0 0 0 0 4.794c1.3.015 2.599.003 3.897.006.69-.006 1.39.04 2.068-.115.62-.135 1.233-.403 1.668-.877a2.07 2.07 0 0 0 .535-1.718c-.087-.612-.476-1.153-.988-1.486-.702-.458-1.56-.607-2.385-.607-1.598.002-3.197-.003-4.795.003Zm0 8.061c-.008 1.735-.008 3.47 0 5.206 1.948.023 3.895.002 5.842.01.915.008 1.874-.1 2.673-.581.556-.327.96-.903 1.057-1.543.098-.687-.03-1.438-.476-1.988-.397-.5-.998-.789-1.606-.94-.855-.225-1.746-.163-2.62-.172-1.623.005-3.247-.011-4.87.008Zm23.086-11.106c.042-.084.074-.226.2-.204 1.522-.008 3.045.002 4.567-.005.128 0 .306-.013.333.153 2.708 6.545 5.426 13.085 8.128 19.632-1.416.002-2.832.018-4.247-.008-.503-1.317-1.033-2.624-1.539-3.94-2.738-.02-5.476-.003-8.215-.008-.515.006-1.032-.014-1.548.012-.502 1.317-1.033 2.623-1.537 3.939-1.415.02-2.83.007-4.245.006 2.693-6.53 5.407-13.05 8.103-19.577Zm2.528 4.02c-.146.2-.206.446-.306.669-1.042 2.514-2.078 5.03-3.124 7.542 2.308-.006 4.616-.005 6.925 0-1.096-2.659-2.2-5.313-3.296-7.972-.05-.089-.07-.235-.199-.238Zm31.617-4.216c1.313-.014 2.626-.015 3.938 0 .016 2.772.012 5.545.002 8.317 3.39.025 6.78.006 10.17.01.016-2.77.01-5.542.004-8.313 1.318-.047 2.64-.02 3.959-.013.018 4.597.002 9.194.007 13.792-.004 1.994.01 3.989-.007 5.983-1.319 0-2.64.013-3.959-.007.012-2.516 0-5.032.006-7.548a4.483 4.483 0 0 0-.026-.649c-3.383.013-6.767.006-10.15.004 0 2.734.013 5.468-.006 8.2a861.11 861.11 0 0 1-3.937 0c-.023-3.84-.004-7.68-.01-11.521.006-2.752-.012-5.504.009-8.256Z" fill="#000"/><path d="M42.453 61.954c19.182-.01 38.365-.002 57.547-.004v14.846c-.146 1.16-.547 2.317-1.355 3.185a5.178 5.178 0 0 1-3.88 1.726c-17.437 0-34.874.004-52.31-.002-.005-6.584-.004-13.167-.002-19.751Zm47.38 4.652c-.57.225-1.107.573-1.467 1.076-.578.781-.643 1.849-.372 2.759.327.928 1.189 1.57 2.1 1.867.966.294 1.972.459 2.916.826.314.131.646.283.852.566.199.346.141.84-.172 1.1-.226.196-.523.272-.808.329-.712.136-1.44.114-2.16.102-.985-.042-1.975-.11-2.939-.329a26.36 26.36 0 0 0 .007 2.008c1.427.288 2.892.454 4.347.345 1.046-.095 2.144-.34 2.948-1.059.49-.437.832-1.045.907-1.702.077-.684.028-1.432-.384-2.01-.418-.614-1.106-.97-1.793-1.198-.91-.28-1.84-.489-2.747-.777-.332-.114-.677-.24-.934-.488-.245-.24-.289-.618-.212-.938.09-.323.377-.559.69-.652.689-.213 1.42-.178 2.13-.168.946.034 1.892.136 2.818.338.003-.666 0-1.33.002-1.996-.697-.217-1.429-.285-2.152-.348-1.198-.092-2.44-.079-3.578.35Zm-37.885-.309c-.012 1.82-.001 3.64-.005 5.459.014 1.812-.026 3.626.02 5.437.695-.01 1.392-.01 2.087 0 .034-.239.03-.481.028-.721-.004-2.195.002-4.39-.004-6.585 1.672 2.423 3.313 4.868 4.99 7.288.705.008 1.411.014 2.118-.004.018-1.83.002-3.66.008-5.49-.007-1.795.013-3.59-.01-5.385-.705-.001-1.41-.002-2.114 0-.016 2.422.01 4.845-.014 7.266-1.675-2.397-3.295-4.833-4.961-7.236-.708-.072-1.43-.012-2.143-.029Zm11.66 0c-.021 2.917-.003 5.835-.009 8.752.017.714-.035 1.431.026 2.143 2.593-.01 5.184-.011 7.777.001.04-.664.016-1.33.014-1.994-1.895-.01-3.791.002-5.687-.006a223.77 223.77 0 0 1 0-2.458c1.541-.01 3.083.01 4.624-.01a213.86 213.86 0 0 1 0-1.962c-1.537-.03-3.077-.014-4.615-.007-.025-.82-.007-1.64-.01-2.46 1.892-.017 3.784-.008 5.676-.004.034-.664.017-1.33.01-1.995-2.602-.004-5.204-.001-7.806 0Zm8.723.002c.756 3.626 1.543 7.246 2.284 10.877 1.065.025 2.131.002 3.197.011.485-1.878.992-3.75 1.486-5.626.102-.338.148-.696.308-1.015.572 2.213 1.137 4.429 1.71 6.642 1.009-.001 2.017-.005 3.025.002.486-2.024.917-4.061 1.386-6.09.343-1.604.749-3.197 1.062-4.806-.688.001-1.376.005-2.063-.002-.584 2.529-1.109 5.073-1.675 7.606-.074.29-.095.597-.228.869-.6-2.22-1.184-4.444-1.774-6.666-.966-.019-1.931-.008-2.897-.005-.624 2.22-1.213 4.451-1.837 6.671-.108-.19-.127-.413-.17-.624-.535-2.612-1.095-5.22-1.619-7.835-.731-.026-1.463-.01-2.195-.01Zm-24.69 8.331c-.873.292-1.125 1.528-.537 2.198.537.637 1.717.604 2.17-.117.37-.56.294-1.387-.209-1.843-.378-.345-.953-.374-1.424-.237Z" fill="url(#a)"/><defs><linearGradient id="a" x1="42.298" y1="71.832" x2="99.924" y2="71.832" gradientUnits="userSpaceOnUse"><stop stop-color="#00914F"/><stop offset="1" stop-color="#009CCE"/></linearGradient></defs></svg>