<svg width="120" height="120" fill="none" xmlns="http://www.w3.org/2000/svg"><path d="M59.627 33.19c15.01 0 27.233 12.224 27.233 27.082 0 14.98-12.224 27.083-27.353 27.083-15.13 0-27.233-12.104-27.233-27.083 0-7.19 2.905-14.02 7.988-19.173 5.204-5.033 12.104-7.909 19.365-7.909Zm0-7.19c-19 0-34.372 15.339-34.372 34.153 0 18.813 15.37 34.272 34.37 34.272C78.63 94.425 94 79.085 94 60.272c0-9.108-3.631-17.735-10.046-24.206C77.542 29.596 68.706 26 59.63 26h-.002Z" fill="url(#a)"/><path d="M59.63 87.475c-1.452 0-2.783-.12-4.115-.36l4.115-12.583L14 66.503l63.907-24.564-15.01 45.295c-1.089.24-2.178.24-3.267.24Zm6.657-33.315-25.66 9.827 21.183 3.716 4.477-13.543Z" fill="url(#b)"/><defs><linearGradient id="a" x1="51.606" y1="43.584" x2="88.187" y2="120.917" gradientUnits="userSpaceOnUse"><stop stop-color="#68B037"/><stop offset="1" stop-color="#53A229"/></linearGradient><linearGradient id="b" x1="67.559" y1="98.2" x2="51.414" y2="64.728" gradientUnits="userSpaceOnUse"><stop stop-color="#AB212F"/><stop offset="1" stop-color="#E31523"/></linearGradient></defs></svg>