<svg width="120" height="120" fill="none" xmlns="http://www.w3.org/2000/svg"><g clip-path="url(#a)"><path d="M41.51 71.13c0 .823-.304 1.45-.912 1.882-.607.431-1.516.647-2.727.647-.62 0-1.149-.04-1.586-.119a6.248 6.248 0 0 1-1.228-.349v-1.81c.432.192.919.352 1.46.481.542.13 1.019.195 1.43.195.845 0 1.267-.23 1.267-.69a.559.559 0 0 0-.168-.42c-.112-.108-.305-.23-.58-.367-.274-.137-.64-.296-1.098-.477-.656-.26-1.138-.5-1.446-.72a2.06 2.06 0 0 1-.67-.757c-.14-.285-.21-.636-.21-1.053 0-.714.293-1.266.88-1.656.588-.39 1.42-.585 2.499-.585a7.46 7.46 0 0 1 2.998.632l-.702 1.58a13.425 13.425 0 0 0-1.198-.424 3.966 3.966 0 0 0-1.136-.165c-.687 0-1.03.175-1.03.525 0 .196.11.366.332.51.22.143.705.356 1.453.64.666.254 1.154.49 1.464.71.31.22.54.475.687.763.147.287.22.629.22 1.026ZM43.226 63.406c0-.714.422-1.07 1.266-1.07.844 0 1.267.356 1.267 1.07 0 .34-.106.604-.317.794-.211.189-.528.284-.95.284-.844 0-1.266-.36-1.266-1.078Zm2.426 10.11h-2.327v-8.033h2.327v8.032ZM55.728 73.515H53.4v-4.692c0-.58-.103-1.014-.309-1.304-.206-.29-.53-.435-.972-.435-.595 0-1.027.206-1.297.618-.27.412-.404 1.09-.404 2.033v3.78h-2.327v-8.033h1.778l.312 1.028h.13c.229-.37.56-.658.992-.866.432-.209.928-.312 1.487-.312 1.277 0 2.14.392 2.593 1.178h.206c.23-.374.566-.664 1.011-.87a3.546 3.546 0 0 1 1.507-.308c.966 0 1.697.233 2.193.7.495.467.743 1.215.743 2.245v5.238H58.71v-4.692c0-.58-.103-1.014-.309-1.304-.206-.29-.53-.435-.972-.435-.57 0-.996.192-1.278.575-.282.383-.423.991-.423 1.825v4.03ZM68.116 73.659c-1.002 0-1.787-.343-2.357-1.028h-.122c.081.67.122 1.058.122 1.164v3.255h-2.326V65.482h1.891l.328 1.042h.107c.544-.795 1.35-1.192 2.418-1.192 1.007 0 1.795.366 2.365 1.099.57.732.854 1.75.854 3.053 0 .858-.134 1.603-.4 2.234-.267.633-.648 1.114-1.14 1.445-.494.33-1.074.496-1.74.496Zm-.686-6.575c-.575 0-.995.167-1.259.5-.264.333-.402.882-.412 1.65v.236c0 .862.136 1.48.408 1.853.272.374.703.561 1.293.561 1.043 0 1.564-.81 1.564-2.428 0-.79-.129-1.384-.385-1.78-.257-.394-.66-.592-1.21-.592ZM75.644 73.515h-2.327v-11.18h2.327v11.18ZM81.944 73.659c-1.373 0-2.446-.357-3.219-1.071-.773-.714-1.16-1.724-1.16-3.032 0-1.346.358-2.387 1.073-3.122.714-.735 1.702-1.102 2.963-1.102 1.205 0 2.143.323 2.814.969.672.647 1.007 1.54 1.007 2.68v1.064h-5.5c.026.623.222 1.108.588 1.458.366.35.88.525 1.54.525.515 0 1-.051 1.458-.151.458-.1.936-.261 1.434-.482v1.696a5.65 5.65 0 0 1-1.304.427c-.463.094-1.028.14-1.694.14Zm-.328-6.768c-.493 0-.88.147-1.16.441-.279.295-.44.713-.48 1.254h3.265c-.01-.541-.16-.96-.45-1.254-.29-.294-.681-.441-1.175-.441ZM41.51 87.604c0 .823-.304 1.45-.912 1.882-.607.431-1.516.647-2.727.647-.62 0-1.149-.04-1.586-.118a6.283 6.283 0 0 1-1.228-.349v-1.81c.432.191.919.351 1.46.48.542.13 1.019.195 1.43.195.845 0 1.267-.23 1.267-.69a.558.558 0 0 0-.168-.42c-.112-.108-.305-.23-.58-.367a14.75 14.75 0 0 0-1.098-.477c-.656-.26-1.138-.499-1.446-.719a2.059 2.059 0 0 1-.67-.758c-.14-.285-.21-.636-.21-1.053 0-.714.293-1.266.88-1.656.588-.39 1.42-.585 2.499-.585 1.027 0 2.026.21 2.998.632l-.702 1.58a13.294 13.294 0 0 0-1.198-.423 3.955 3.955 0 0 0-1.136-.165c-.687 0-1.03.174-1.03.524 0 .196.11.366.332.51.22.143.705.357 1.453.64.666.253 1.154.49 1.464.711.31.22.54.474.687.762.147.287.22.629.22 1.027ZM51.075 85.958c0 1.309-.366 2.331-1.098 3.068-.732.738-1.752 1.107-3.059 1.107-.819 0-1.54-.169-2.166-.507a3.46 3.46 0 0 1-1.442-1.455c-.335-.632-.503-1.369-.503-2.213 0-1.312.363-2.332 1.09-3.06.728-.729 1.75-1.092 3.067-1.092.818 0 1.54.167 2.166.503a3.449 3.449 0 0 1 1.442 1.443c.335.629.503 1.364.503 2.206Zm-5.896 0c0 .796.138 1.397.416 1.803.277.408.728.611 1.354.611.62 0 1.066-.202 1.338-.607.272-.404.408-1.007.408-1.807 0-.795-.137-1.39-.412-1.789-.274-.398-.724-.596-1.35-.596-.62 0-1.068.198-1.342.593-.275.395-.412.993-.412 1.792ZM55.323 89.99h-2.327V78.81h2.327v11.18ZM63.806 89.99l-.313-1.027h-.122c-.25.373-.602.661-1.06.865-.458.203-.98.305-1.564.305-1.002 0-1.757-.252-2.265-.758-.509-.506-.763-1.232-.763-2.18v-5.238h2.326v4.692c0 .579.11 1.014.328 1.304.219.289.567.434 1.045.434.651 0 1.122-.204 1.412-.614.29-.41.434-1.088.434-2.037v-3.78h2.327v8.033h-1.785ZM71.625 88.388c.407 0 .895-.085 1.465-.252v1.631c-.58.244-1.292.366-2.136.366-.93 0-1.608-.222-2.033-.664-.425-.443-.637-1.108-.637-1.994v-3.873H67.17v-.926l1.282-.734.671-1.695h1.488v1.71h2.387v1.645h-2.387v3.873c0 .312.093.541.278.69.186.148.431.223.736.223ZM74.713 79.88c0-.713.422-1.07 1.267-1.07.844 0 1.266.357 1.266 1.07 0 .34-.106.605-.317.794-.21.19-.527.284-.95.284-.844 0-1.266-.36-1.266-1.078Zm2.426 10.11h-2.326v-8.033h2.326v8.032ZM87.33 85.958c0 1.309-.367 2.331-1.099 3.068-.732.738-1.752 1.107-3.058 1.107-.82 0-1.541-.169-2.167-.507a3.46 3.46 0 0 1-1.441-1.455c-.336-.632-.504-1.369-.504-2.213 0-1.312.364-2.332 1.09-3.06.728-.729 1.75-1.092 3.067-1.092.819 0 1.541.167 2.167.503a3.447 3.447 0 0 1 1.441 1.443c.336.629.503 1.364.503 2.206Zm-5.897 0c0 .796.139 1.397.416 1.803.277.408.728.611 1.354.611.62 0 1.067-.202 1.338-.607.273-.404.409-1.007.409-1.807 0-.795-.137-1.39-.412-1.789-.275-.398-.725-.596-1.35-.596-.62 0-1.068.198-1.343.593-.274.395-.412.993-.412 1.792ZM97.124 89.99h-2.326v-4.693c0-.579-.11-1.014-.328-1.304-.219-.29-.568-.434-1.046-.434-.65 0-1.12.205-1.41.614-.29.409-.436 1.088-.436 2.036v3.78h-2.326v-8.032h1.777l.313 1.027h.13c.26-.389.616-.681 1.072-.88.454-.2.972-.298 1.552-.298.991 0 1.744.252 2.258.758.513.505.77 1.234.77 2.187v5.238ZM105.467 87.604c0 .823-.304 1.45-.912 1.882-.608.431-1.516.647-2.727.647-.62 0-1.149-.04-1.586-.118a6.26 6.26 0 0 1-1.228-.349v-1.81c.432.191.919.351 1.461.48.541.13 1.018.195 1.43.195.844 0 1.266-.23 1.266-.69a.558.558 0 0 0-.168-.42c-.112-.108-.305-.23-.58-.367a14.57 14.57 0 0 0-1.098-.477c-.656-.26-1.138-.499-1.446-.719a2.064 2.064 0 0 1-.671-.758c-.14-.285-.21-.636-.21-1.053 0-.714.294-1.266.881-1.656.588-.39 1.42-.585 2.498-.585 1.028 0 2.027.21 2.998.632l-.702 1.58a13.286 13.286 0 0 0-1.197-.423 3.954 3.954 0 0 0-1.137-.165c-.686 0-1.03.174-1.03.524 0 .196.112.366.332.51.222.143.706.357 1.454.64.666.254 1.154.49 1.464.711.31.22.539.474.686.762.148.287.222.629.222 1.027ZM43.013 106.479c0 1.155-.358 2.03-1.072 2.626-.715.597-1.779.895-3.192.895-1.246 0-2.31-.159-3.189-.474v-1.753a8.907 8.907 0 0 0 3.326.617c1.195 0 1.793-.608 1.793-1.824v-.159l.068-.984h-.068c-.545.79-1.35 1.186-2.418 1.186-1.023 0-1.815-.372-2.377-1.114-.562-.742-.843-1.753-.843-3.032 0-1.318.291-2.344.874-3.079.582-.735 1.384-1.102 2.407-1.102 1.047 0 1.87.392 2.471 1.177h.06l.192-1.026h1.968v8.046Zm-3.921-1.588c.626 0 1.073-.168 1.342-.506.27-.338.405-.885.405-1.642v-.266c0-.857-.141-1.474-.424-1.85-.282-.376-.736-.564-1.361-.564-1.094 0-1.64.81-1.64 2.428 0 .805.136 1.406.408 1.804.272.398.695.596 1.27.596ZM50.205 98.282c.315 0 .577.02.786.064l-.176 2.055a2.817 2.817 0 0 0-.686-.072c-.743 0-1.321.18-1.735.539-.415.359-.622.862-.622 1.509v4.088h-2.327v-8.032h1.762l.344 1.35h.114a3.09 3.09 0 0 1 1.072-1.088 2.76 2.76 0 0 1 1.468-.413ZM60.138 102.434c0 1.308-.366 2.331-1.099 3.068-.732.737-1.752 1.107-3.058 1.107-.82 0-1.541-.17-2.167-.507a3.46 3.46 0 0 1-1.441-1.455c-.336-.632-.504-1.37-.504-2.213 0-1.312.364-2.332 1.091-3.06.727-.729 1.75-1.092 3.066-1.092.819 0 1.541.167 2.166.503a3.445 3.445 0 0 1 1.442 1.443c.336.629.504 1.363.504 2.206Zm-5.897 0c0 .795.139 1.397.416 1.803.277.408.729.611 1.354.611.62 0 1.067-.203 1.339-.607.272-.404.408-1.007.408-1.807 0-.795-.137-1.391-.412-1.789-.275-.398-.725-.596-1.35-.596-.62 0-1.068.198-1.343.592-.274.396-.412.994-.412 1.793ZM68.099 106.465l-.313-1.028h-.122c-.25.374-.603.662-1.06.866-.458.204-.98.305-1.564.305-1.002 0-1.757-.252-2.265-.758-.51-.505-.763-1.232-.763-2.18v-5.238h2.326v4.692c0 .579.11 1.013.328 1.304.219.289.567.435 1.045.435.651 0 1.121-.206 1.411-.615.29-.41.435-1.089.435-2.037v-3.779h2.327v8.032h-1.785v.001ZM77.011 106.609c-1.002 0-1.787-.343-2.357-1.028h-.122c.081.671.122 1.058.122 1.164V110h-2.326V98.433h1.891l.329 1.042h.106c.544-.796 1.35-1.193 2.418-1.193 1.007 0 1.795.366 2.365 1.099.57.732.854 1.75.854 3.053 0 .858-.133 1.603-.4 2.235-.267.632-.648 1.113-1.14 1.444-.494.33-1.074.496-1.74.496Zm-.686-6.574c-.575 0-.995.166-1.259.499-.264.333-.402.883-.412 1.649v.237c0 .862.136 1.48.408 1.853.272.374.703.561 1.293.561 1.043 0 1.564-.809 1.564-2.428 0-.791-.129-1.384-.385-1.779-.257-.394-.66-.592-1.21-.592Z" fill="#1A161A"/><path d="M89.395 13.49c-.327.321-.511.776-.525 1.39v.014c-.015.054-.015.107-.015.16 0 .308.043.603.1.857.057.254.156.481.283.668.142.188.313.335.54.442.213.107.483.16.795.16.469 0 .838-.12 1.107-.348l.185-.173c.17-.228.299-.509.383-.87v-2.58c-.34-.148-.809-.228-1.419-.228s-1.093.174-1.434.508Z" fill="#E1001A"/><path d="M90.573 10c-3.364 0-6.09 2.568-6.09 5.737 0 1.217.397 2.34 1.092 3.263L68.411 40.437a6.306 6.306 0 0 0-1.96-.307c-2.697 0-4.983 1.658-5.778 3.958l-33.776.08c-.78-2.34-3.08-4.038-5.806-4.038-3.365 0-6.091 2.567-6.091 5.737s2.726 5.737 6.09 5.737c2.656 0 4.913-1.605 5.736-3.852l33.862-.08c.794 2.287 3.066 3.932 5.764 3.932 3.365 0 6.09-2.568 6.09-5.737a5.502 5.502 0 0 0-1.079-3.277l17.165-21.437c.61.2 1.264.308 1.945.308 3.365 0 6.091-2.554 6.091-5.724 0-3.17-2.726-5.737-6.09-5.737ZM23.206 47.752a2.501 2.501 0 0 1-.284.255c-.412.334-1.05.494-1.888.494a4.77 4.77 0 0 1-.753-.067 5 5 0 0 1-.681-.173 8.63 8.63 0 0 1-.596-.241 2.95 2.95 0 0 1-.44-.281l.468-.709c.085.094.213.174.37.268.141.093.311.173.496.24.057.027.1.04.156.054.142.053.284.093.44.12.1.014.2.04.299.054h.014c.113 0 .227.013.326.013.1 0 .213 0 .298-.013h.029l.255-.04c.185-.027.341-.08.483-.148.128-.066.241-.16.327-.267a.793.793 0 0 0 .113-.414c0-.228-.1-.415-.284-.535a2.828 2.828 0 0 0-.71-.308c-.284-.067-.596-.147-.937-.214a5.328 5.328 0 0 1-.667-.16c-.085-.027-.17-.067-.255-.094a1.95 1.95 0 0 1-.71-.441c-.2-.188-.284-.442-.284-.776 0-.28.056-.508.184-.709.128-.2.298-.36.497-.481.213-.134.454-.228.738-.281.27-.067.568-.094.866-.094.54 0 .994.067 1.392.188.383.133.696.254.923.4l-.37.683a9.14 9.14 0 0 0-.823-.375c-.298-.12-.667-.187-1.107-.187-.17 0-.341.027-.497.054-.17.04-.313.08-.454.147a.997.997 0 0 0-.327.254.7.7 0 0 0-.114.388c0 .187.1.334.284.44.014.014.029.014.057.028.185.08.398.16.653.227.284.067.596.134.937.187.327.067.64.16.923.268.284.12.525.28.71.468.199.2.284.468.284.802a1.5 1.5 0 0 1-.34.976Zm45.815-.976c0 .495-.213.91-.639 1.23-.411.335-1.05.495-1.888.495a4.713 4.713 0 0 1-1.434-.24c-.213-.08-.412-.16-.596-.241a3.944 3.944 0 0 1-.44-.28l.043-.081h.014l.411-.629c.086.094.213.174.37.268a2.8 2.8 0 0 0 .496.24c.114.054.227.08.341.12.085.014.17.04.256.054.213.04.426.067.639.067.213 0 .397-.013.582-.053.184-.027.34-.08.482-.148.128-.066.242-.16.327-.267a.68.68 0 0 0 .114-.414c0-.027 0-.067-.015-.094a.542.542 0 0 0-.27-.441 2.613 2.613 0 0 0-.71-.308c-.184-.04-.383-.094-.581-.134l-.057-.04v.027c-.1-.027-.185-.054-.284-.067a4.725 4.725 0 0 1-.937-.254 2.078 2.078 0 0 1-.71-.441c-.185-.188-.284-.442-.284-.776 0-.107.014-.2.028-.294a.985.985 0 0 1 .157-.415c.127-.2.298-.36.51-.481a1.92 1.92 0 0 1 .725-.281 3.53 3.53 0 0 1 .852-.094h.014c.54 0 .994.067 1.391.188.383.133.696.254.923.4l-.37.683a9.14 9.14 0 0 0-.822-.375c-.285-.12-.668-.187-1.108-.187-.17 0-.34.027-.497.054a.735.735 0 0 0-.184.053h-.015c-.099.027-.17.053-.255.094a.818.818 0 0 0-.313.254.262.262 0 0 0-.056.107.465.465 0 0 0-.071.28c0 .04 0 .094.014.134.042.12.128.228.27.308.198.094.44.187.724.254.085.027.184.04.284.067.198.04.411.08.639.12a6.1 6.1 0 0 1 .922.268c.284.12.526.28.71.468l.014.013c.185.2.284.468.284.79Zm24.136-28.725c0 .334-.071.628-.213.896a1.78 1.78 0 0 1-.568.628 2.425 2.425 0 0 1-.851.375 3.751 3.751 0 0 1-1.051.133c-.34 0-.653-.026-.923-.093a.867.867 0 0 1-.27-.04 4.214 4.214 0 0 1-.866-.335l.426-.775c.071.053.17.12.284.174.1.053.227.093.384.147.141.04.298.08.454.12.056.013.113.013.156.013.114.027.227.027.34.027.341 0 .625-.027.838-.094.228-.053.412-.147.554-.267a.957.957 0 0 0 .298-.481c.057-.188.1-.428.1-.71v-.614h-.057a1.58 1.58 0 0 1-.682.548 2.302 2.302 0 0 1-.185.08h-.014c-.241.08-.525.12-.866.12-.88 0-1.519-.227-1.93-.695-.27-.294-.455-.709-.526-1.23a4.442 4.442 0 0 1-.085-.91c0-.922.255-1.631.78-2.1.526-.48 1.307-.721 2.33-.721.482 0 .894.04 1.22.093.34.067.64.148.923.241v5.47Z" fill="#E1001A"/></g><defs><clipPath id="a"><path fill="#fff" transform="translate(15 10)" d="M0 0h90.467v100H0z"/></clipPath></defs></svg>